<mxfile host="app.diagrams.net" modified="2024-08-06T02:41:06.407Z" agent="Mozilla/5.0 (Windows NT 10.0; Win64; x64) AppleWebKit/537.36 (KHTML, like Gecko) Chrome/116.0.0.0 Safari/537.36" version="24.6.4" etag="ho1H1r2NM8TXvUXbI1_o" type="github">
  <diagram name="第 1 页" id="n_hkZi5we5BMyPmXZ30J">
    <mxGraphModel>
      <root>
        <mxCell id="0" />
        <mxCell id="1" parent="0" />
      </root>
    </mxGraphModel>
  </diagram>
</mxfile>
